# 3ds Max Wavefront OBJ Exporter v0.97b - (c)2007 guruware
# File Created: 21.01.2017 02:52:41

#
# object Plane001
#

v  -2048.0000 0.0000 2048.0000
v  2048.0000 0.0000 2048.0000
v  -2048.0000 0.0000 -2048.0000
v  2048.0000 0.0000 -2048.0000
# 4 vertices

vn 0.0000 1.0000 -0.0000
vn 0.0000 1.0000 -0.0000
vn 0.0000 1.0000 -0.0000
vn 0.0000 1.0000 -0.0000
vn 0.0000 1.0000 -0.0000
vn 0.0000 1.0000 -0.0000
# 6 vertex normals

vt 0.0000 0.0001 0.5000
vt 511.9999 0.0000 0.5000
vt 0.0001 512.0000 0.5000
vt 512.0000 511.9999 0.5000
# 4 texture coords

g Plane001
f 3/3/1 1/1/2 4/4/3 
f 2/2/4 4/4/5 1/1/6 
# 2 faces

