# 3ds Max Wavefront OBJ Exporter v0.97b - (c)2007 guruware
# File Created: 21.01.2017 19:53:28

#
# object Plane001
#

v  -1.0000 0.0000 1.0000
v  1.0000 0.0000 1.0000
v  -1.0000 0.0000 -1.0000
v  1.0000 0.0000 -1.0000
# 4 vertices

vn 0.0000 1.0000 -0.0000
vn 0.0000 1.0000 -0.0000
vn 0.0000 1.0000 -0.0000
vn 0.0000 1.0000 -0.0000
vn 0.0000 1.0000 -0.0000
vn 0.0000 1.0000 -0.0000
# 6 vertex normals

vt 0.0000 0.0000 0.0000
vt 1.0000 0.0000 0.0000
vt 0.0000 0.0000 0.0000
vt 1.0000 0.0000 0.0000
vt 0.0000 0.0000 0.0000
vt 1.0000 0.0000 0.0000
vt 0.0000 1.0000 0.0000
vt 1.0000 1.0000 0.0000
# 8 texture coords

g Plane001
f 3/7/1 1/5/2 4/8/3 
f 2/6/4 4/8/5 1/5/6 
# 2 faces

